<svg id="Layer_1" data-name="Layer 1" xmlns="http://www.w3.org/2000/svg" width="1366" height="599.85" viewBox="0 0 1366 599.85">
  <defs>
    <style>
      .cls-1 {
        fill: #fff;
      }
    </style>
  </defs>
  <title>mini-logo</title>
  <path class="cls-1" d="M0,223.06H430.08q41-63.94,107.77-101.47t145-37.51q78.24,0,145.29,37.65T935.71,223.06H1366l-42.59,42.59H959.18a243.58,243.58,0,0,1,17,50.58h297.86l-42.59,42.62H982.78q1.11,16.5,1.09,25c0,5.67-.35,14.05-1.09,25h198.67l-42.63,42.59H976.2a231.67,231.67,0,0,1-17,50.34H1088l-43.16,42.59H935.71q-40.46,63.72-107.53,101.64T682.89,683.92q-78.27,0-145-37.72A303.09,303.09,0,0,1,430.08,544.42h-109l-42.35-42.59H407.38a232.91,232.91,0,0,1-16.84-50.34H228L184.87,408.9H383.5c-.74-11-1.09-19.37-1.09-25s.35-14,1.09-25H135.34L92.19,316.23H390.54a244.87,244.87,0,0,1,16.84-50.58H42.59Zm446.44,61a255.09,255.09,0,0,0,0,199.68q20.32,47.6,54.81,82.2t82,55a253.77,253.77,0,0,0,199.47,0q47.61-20.43,82.1-55t55-82.2a253.49,253.49,0,0,0,0-199.68q-20.55-47.66-55-82.1t-82.1-54.85a253.77,253.77,0,0,0-199.47,0q-47.49,20.43-82,54.85T446.44,284ZM478,451.49h26.62l-.77-100.9L536,451.49l29.6-.17,31.63-100.21V451.49h28.4V316.23l-40,0L551.34,424.07l-35-107.74-38.39-.1Zm178.32,0h28.19V316.23H656.28Zm58.8,0h27.15V354.05l54,97.44H829V316.23H802.37v98l-54-98H715.08Zm145,0h27.67V316.23H860.12Z" transform="translate(0 -84.08)"/>
</svg>
